<svg width="42" height="34" viewBox="0 0 42 34" fill="none" xmlns="http://www.w3.org/2000/svg">
<path d="M34.65 25.5552L33.61 28.6759L32.57 32.6288C32.57 32.6288 29.865 34.0852 29.657 33.0449C29.449 32.0047 30.697 31.7966 30.697 31.7966L31.113 29.7162L27.993 24.0989L34.65 25.5552Z" fill="#291507"/>
<path d="M34.65 25.5552L33.61 28.6759L32.57 32.6288C32.57 32.6288 29.865 34.0852 29.657 33.0449C29.449 32.0047 30.697 31.7966 30.697 31.7966L31.113 29.7162L27.993 24.0989L34.65 25.5552Z" fill="#291507"/>
<path d="M16.966 24.3071L15.094 32.8371C15.094 32.8371 13.6373 33.6693 12.5971 33.2532C11.5568 32.8371 13.2212 31.7968 13.2212 31.7968C13.2212 31.7968 12.5971 26.5957 9.47641 25.9715C6.35571 25.3474 16.966 24.3071 16.966 24.3071Z" fill="#291507"/>
<path d="M16.966 24.3071L15.094 32.8371C15.094 32.8371 13.6373 33.6693 12.5971 33.2532C11.5568 32.8371 13.2212 31.7968 13.2212 31.7968C13.2212 31.7968 12.5971 26.5957 9.47641 25.9715C6.35571 25.3474 16.966 24.3071 16.966 24.3071Z" fill="#291507"/>
<path d="M4.69131 14.3209C4.69131 14.3209 8.85221 15.7772 12.5971 14.945C12.5971 14.945 19.879 13.9048 20.503 13.6967C21.127 13.4887 28.201 13.0726 31.945 13.6967C31.945 13.6967 42.348 5.58288 36.523 2.04608C36.523 2.04608 34.026 3.29436 33.402 2.46217C33.168 2.1501 33.285 1.75026 33.522 1.37236C33.791 0.961739 34.155 0.622681 34.584 0.384492C35.013 0.146303 35.494 0.0161473 35.984 0.00528627C38.158 -0.0761077 42.054 0.7051 40.286 7.81313C39.782 9.77369 38.853 11.5996 37.566 13.1618C36.618 14.3298 35.638 15.9462 36.106 17.2335C36.939 19.5221 37.147 23.0589 37.147 23.0589L40.059 27.4278C40.059 27.4278 41.724 32.8371 41.724 33.0451C41.724 33.2532 39.46 33.6945 39.019 33.2532C38.603 32.8371 39.643 32.0049 39.643 32.0049C39.643 32.0049 38.811 30.3405 37.355 29.9244C35.898 29.5083 31.945 28.052 31.321 27.4278C30.697 26.8037 17.382 23.0589 13.6373 26.5957C11.5358 28.6033 9.3124 30.4793 6.9798 32.2129C6.9798 32.2129 5.93961 33.6693 4.69131 33.6693C3.44301 33.6693 3.23501 31.7968 4.69131 31.5888C6.14761 31.3807 8.22811 26.3876 8.22811 26.3876C8.22811 26.3876 8.85221 22.6428 5.73151 22.0186C4.01121 21.6746 2.98631 21.6466 2.41291 21.6908C2.18391 21.7099 1.95341 21.6826 1.73521 21.6106C1.51701 21.5387 1.31541 21.4235 1.14261 21.2721C0.771408 20.9151 0.438804 20.5199 0.150504 20.0931C0.0744045 19.9847 0.0254059 19.8597 0.00760592 19.7285C-0.0102941 19.5973 0.00350438 19.4637 0.0479044 19.3389C0.325004 18.5826 0.55561 17.81 0.73841 17.0255C0.94641 15.9853 2.61081 15.1531 2.61081 15.1531C2.61081 15.1531 3.02691 12.2404 3.65111 13.0726C3.97091 13.5104 4.31831 13.9273 4.69131 14.3209Z" fill="#291507"/>
<path d="M4.69131 14.3209C4.69131 14.3209 8.85221 15.7772 12.5971 14.945C12.5971 14.945 19.879 13.9048 20.503 13.6967C21.127 13.4887 28.201 13.0726 31.945 13.6967C31.945 13.6967 42.348 5.58288 36.523 2.04608C36.523 2.04608 34.026 3.29436 33.402 2.46217C33.168 2.1501 33.285 1.75026 33.522 1.37236C33.791 0.961739 34.155 0.622681 34.584 0.384492C35.013 0.146303 35.494 0.0161473 35.984 0.00528627C38.158 -0.0761077 42.054 0.7051 40.286 7.81313C39.782 9.77369 38.853 11.5996 37.566 13.1618C36.618 14.3298 35.638 15.9462 36.106 17.2335C36.939 19.5221 37.147 23.0589 37.147 23.0589L40.059 27.4278C40.059 27.4278 41.724 32.8371 41.724 33.0451C41.724 33.2532 39.46 33.6945 39.019 33.2532C38.603 32.8371 39.643 32.0049 39.643 32.0049C39.643 32.0049 38.811 30.3405 37.355 29.9244C35.898 29.5083 31.945 28.052 31.321 27.4278C30.697 26.8037 17.382 23.0589 13.6373 26.5957C11.5358 28.6033 9.3124 30.4793 6.9798 32.2129C6.9798 32.2129 5.93961 33.6693 4.69131 33.6693C3.44301 33.6693 3.23501 31.7968 4.69131 31.5888C6.14761 31.3807 8.22811 26.3876 8.22811 26.3876C8.22811 26.3876 8.85221 22.6428 5.73151 22.0186C4.01121 21.6746 2.98631 21.6466 2.41291 21.6908C2.18391 21.7099 1.95341 21.6826 1.73521 21.6106C1.51701 21.5387 1.31541 21.4235 1.14261 21.2721C0.771408 20.9151 0.438804 20.5199 0.150504 20.0931C0.0744045 19.9847 0.0254059 19.8597 0.00760592 19.7285C-0.0102941 19.5973 0.00350438 19.4637 0.0479044 19.3389C0.325004 18.5826 0.55561 17.81 0.73841 17.0255C0.94641 15.9853 2.61081 15.1531 2.61081 15.1531C2.61081 15.1531 3.02691 12.2404 3.65111 13.0726C3.97091 13.5104 4.31831 13.9273 4.69131 14.3209Z" fill="#291507"/>
</svg>
